Patient4_TMGait_0pt6_02_left_37_EMG.mot
version=1
nRows=26
nColumns=33
inDegrees=no
endheader
time	1LAddLong	2LGlutMax	3LGlutMed	4LIliopsoas	5LSemiMemb	6LBicFemLong	7LRecFem	8LVastMed	9LVastLat	10LGasMed	11LTibAnt	12lTibPost	13LPeroneusLong	14LSol	15LExtDigLong	16LFlexDigLong	17RAddLong	18RGlutMax	19RGlutMed	20RIliopsoas	21RSemiMemb	22RBicFemLong	23RRecFem	24RVastMed	25RVastLat	26RGasMed	27RTibAnt	28RTibPost	29RPeroneusLong	30RSol	31RExtDigLong	32RFlexDigLong
46.435	0.010223	-0.015869	-0.18982	0.01297	0.02243	-0.017242	-0.067902	-0.001373	0.006256	-0.036774	0.014496	-0.003052	-0.054016	-0.045166	0.03891	-0.002747	0.00412	-0.33783	-0.10178	0.021973	-0.074158	-0.10819	-0.12207	0.020294	0.074463	-0.02121	-0.018921	-0.012207	-0.00412	0.34988	-0.005951	-0.002441
46.436	0.000458	-0.045013	-0.20004	0.021515	0.007324	-0.008392	-0.050964	-0.004272	0.000763	-0.042877	0.005341	-0.008392	-0.000153	-0.058899	0.052032	-0.00946	0.014191	-0.32928	-0.27161	0.013123	-0.088348	0.13763	-0.10254	-0.02182	0.068817	-0.037689	0.47867	-0.00946	0.036469	0.30304	-0.002594	-0.011292
46.437	0.00061	-0.070953	-0.11276	0.008087	-0.001678	0.013123	-0.058289	-0.007324	-0.007019	-0.022888	-0.000153	-0.008545	0.018463	-0.048676	0.037384	-0.008087	0.001984	-0.21866	-0.32486	0.021057	-0.12482	0.44464	-0.15854	-0.007172	0.049133	-0.067749	0.25528	-0.010834	-0.018463	0.25406	-0.002441	-0.010681
46.438	-0.003967	-0.090027	0.06424	0.01709	-0.00824	0.039368	-0.063324	0.005951	-0.001831	-0.013123	0.010834	-0.007324	0.017242	-0.05722	0.023193	-0.009155	0.003204	-0.099945	-0.18463	-0.025635	-0.14694	0.60379	-0.10757	0.013275	0.03891	-0.07309	0.11215	-0.010681	-0.074768	0.21423	-0.006866	-0.009766
46.439	-0.010071	-0.099792	0.20065	0.005341	-0.009766	0.03418	-0.046844	-0.001221	0.007782	-0.00885	0.015869	-0.012817	0.015564	-0.065765	-0.003967	-0.003815	0.008545	-0.052643	-0.016174	-0.016327	-0.16876	0.22583	-0.047913	0.043945	0.051422	-0.072937	0.12878	-0.011292	-0.086517	0.13596	-0.001068	-0.011139
46.44	-0.002747	-0.1619	0.18585	0.018463	-0.010986	-0.001526	-0.069122	-0.000305	-0.003967	-0.005951	0.019989	-0.014648	-0.006104	-0.048218	-0.014954	-0.001373	0.011902	-0.036621	0.093842	-0.064087	0.003815	-0.16876	-0.051117	0.019379	0.04425	-0.09903	0.16647	-0.007172	-0.10544	0.083771	-0.00061	-0.011749
46.441	-0.007629	-0.11231	0.24536	0.016785	0.026703	-0.05249	-0.07782	-0.001221	0.001831	-0.013733	0.00412	-0.010223	0.00412	-0.049744	-0.001678	-0.003662	0.012665	0.005341	0.068817	-0.067444	0.14938	-0.49164	0.015259	0.003204	0.006256	-0.065765	0.16892	-0.015564	-0.10544	0.045166	-0.003662	-0.012512
46.442	0.001526	-0.090485	0.073547	0.005493	0.051117	-0.083923	-0.076141	-0.010681	0.00061	-0.021362	0.003815	-0.0177	-0.00946	-0.052795	0.001526	0.009766	0.001678	0.005798	0.026855	-0.059814	0.063629	-0.49728	0.026093	-0.059814	-0.024414	-0.065308	0.083008	-0.018463	-0.12558	0.012054	-0.000458	-0.015869
46.443	0.010681	-0.059052	-0.009003	0.00061	0.036011	-0.08606	-0.081787	-0.008087	0.008545	-0.015869	0.005798	-0.019073	-0.009308	-0.054474	0.009918	-0.003204	0.006256	-0.035706	0.057068	0.056152	-0.0177	-0.37506	0.082855	-0.12802	-0.066376	-0.11307	0.11749	-0.023041	-0.13748	0.00412	-0.00351	-0.019531
46.444	0.005188	-0.040894	0.029907	-0.001526	0.000916	-0.031891	-0.090027	-0.015564	0.011597	-0.029144	0.003815	-0.015259	-0.016479	-0.04425	0.00351	-0.001373	0.003357	-0.061035	0.093994	0.15289	-0.000916	-0.27023	0.006409	-0.083313	-0.049744	-0.11185	0.024719	-0.030365	-0.09079	-0.026245	-0.001068	-0.018463
46.445	0.00473	-0.075836	0.06958	0.001678	-0.018005	0.010834	-0.084076	0.008545	-0.005188	-0.020447	0.009918	-0.016022	-0.019226	-0.04715	0.008392	-0.002136	0.011139	-0.15106	-0.12894	0.075684	-0.078583	-0.085602	0.053864	-0.058136	-0.046997	-0.000916	-0.12054	-0.051575	0.1059	-0.034027	-0.002441	-0.010223
46.446	-0.007172	-0.10849	0.050507	0.002594	-0.024567	0.025177	-0.093231	-0.01236	0.00412	-0.028229	0.00473	-0.015106	-0.030365	-0.039063	0.019073	-0.010834	0.009308	-0.20477	-0.06012	0.029449	-0.025177	-0.11017	-0.003815	-0.029144	-0.014038	0.16464	-0.23834	0.026855	0.094452	-0.091095	-0.000763	-0.015411
46.447	-0.019989	-0.077972	0.03006	0.007477	-0.041504	0.025024	-0.075073	-0.006409	0.019836	-0.025635	0.013428	-0.025635	-0.022583	-0.04837	0.008087	-0.007172	-0.021667	-0.16678	-0.05249	0.035248	-0.049438	-0.21759	-0.008698	-0.051422	-0.022583	0.08194	0.037079	0.052948	-0.10101	-0.21973	0	-0.019836
46.448	-0.01297	-0.041504	0.005646	0.004578	-0.02182	0.010986	-0.08255	0.002289	0.004883	-0.02533	0.00351	-0.027008	-0.025177	-0.059357	0.012817	-0.0177	-0.019836	-0.084991	0.014496	0.000916	0.090485	-0.20416	-0.015106	0.034943	-0.023804	0.049438	0.34943	0.033112	-0.071106	-0.3949	-0.000458	-0.010071
46.449	-0.016174	-0.066833	0.050049	0.023346	-0.061188	-0.001373	-0.097351	0.000153	0.006561	-0.041504	0.011444	-0.027618	-0.036316	-0.050659	0.009918	-0.005646	-0.011902	-0.021057	0.006104	-0.059662	0.13351	0.021667	-0.039215	0.046234	0.012512	0.000458	0.71304	0.032196	-0.13702	-0.23712	-0.001068	-0.011902
46.45	-0.007477	-0.088501	0.051117	0.015564	-0.089417	-0.006561	-0.086212	-0.004883	0.001526	-0.032196	0.009918	-0.028992	-0.029602	-0.052185	0.014496	-0.01358	-0.000916	-0.016174	0.005341	-0.057678	-0.00824	0.19241	-0.03067	0.016937	0.016022	-0.024872	1.2041	0.017395	-0.37979	-0.1651	-0.001068	-0.011292
46.451	0.016479	-0.085754	0.009003	0.010376	-0.094757	-0.013733	-0.10162	-0.009003	0.009613	-0.03006	0.01236	-0.026093	-0.028687	-0.048523	0.020599	-0.027466	-0.003357	-0.050201	-0.027008	-0.080414	-0.012207	0.20676	0.009308	-0.037842	0.03006	0.01709	1.5643	0.010071	-0.55527	-0.092468	0.000916	-0.015411
46.452	0.027618	-0.078125	-0.020599	0.012512	-0.034027	-0.041351	-0.10681	-0.009155	0.009155	-0.035095	-0.016632	-0.028992	-0.018616	-0.033875	0.000763	-0.01297	-0.024719	-0.041809	-0.063171	0.023804	-0.047607	0.29175	0.054016	-0.034332	0.031433	0.015106	1.1354	-0.00412	-0.53223	0.086975	-0.002289	-0.016479
46.453	0.025177	-0.052338	-0.017548	0.004578	0.061798	-0.028839	-0.095978	-0.009766	0.005798	-0.027313	-0.065155	-0.024109	-0.013275	-0.046082	0.02121	-0.024872	-0.032654	0.017853	-0.14267	0.033264	-0.050964	0.41245	0.083466	-0.007477	0.021515	0.019531	0.62073	-0.032806	-0.25787	0.005951	-0.000458	-0.005493
46.454	0.015259	-0.045624	-0.024719	0.001831	0.11002	-0.042725	-0.074005	-0.006866	0.018005	-0.03006	-0.045013	-0.019989	-0.029297	-0.046539	0.11169	-0.021057	-0.005188	0.037079	-0.17868	0.053406	0.082092	0.14908	0.14023	-0.068207	-0.020752	0.03891	0.23865	-0.012512	0.29159	-0.22766	-0.000153	0.006409
46.455	0.010071	-0.042267	-0.02655	0.00885	0.11688	-0.032043	-0.087433	-0.007477	0.00351	-0.024414	-0.03952	-0.024109	-0.043335	-0.06485	0.021057	-0.016479	0.011902	0.037384	-0.1207	0.11749	0.031433	-0.11765	0.11398	-0.11475	-0.033264	0.051422	-0.84854	-0.012512	0.60074	-0.46585	-0.001526	0.010681
46.456	0.011292	-0.057831	-0.024414	0.002441	0.062256	-0.023193	-0.10956	-0.012054	0.00351	-0.048523	0.000916	-0.026855	0.053864	-0.038452	-0.10529	-0.000153	0.012817	0.041351	0.2359	0.071411	0.015411	-0.20371	0.12482	-0.098419	-0.032806	0.03952	-2.7654	-0.020294	0.50278	-0.41473	-0.003357	0.002289
46.457	0.009766	-0.062714	-0.021973	0.00351	0.012665	-0.027161	-0.099487	-0.005493	-0.003662	-0.035095	-0.00885	-0.027924	0.041656	-0.033875	-0.069733	-0.00412	0.01358	0.02121	0.37201	0.014954	-0.023499	-0.047302	-0.045471	-0.12878	-0.006256	0.035095	-1.1581	-0.027008	0.058594	-0.36667	-0.001831	-0.005493
46.458	0.020294	-0.021973	-0.010681	0.005646	0.001526	-0.020905	-0.11658	-0.00351	0.014038	-0.014191	-0.084991	-0.035553	-0.023804	-0.052948	-0.02594	-0.011444	-0.001526	0.084229	0.14877	0.056152	-0.041656	0.27466	-0.17609	-0.037384	0.027771	0.033722	-0.10895	0.016174	0.04425	-0.34225	-0.003662	-0.007782
46.459	0.017853	-0.013123	-0.021057	0.012665	-0.001526	-0.011902	-0.12848	0.001221	0.003967	-0.00824	-0.11307	-0.035858	-0.045013	-0.050964	-0.023346	-0.00473	-0.011597	0.11551	0.20401	0.053253	-0.11917	0.16007	0.024567	0.02243	0.038757	0.021667	-0.15793	0.03067	0.18143	-0.25574	-0.00061	-0.015564
46.46	-0.000305	-0.007782	-0.060883	0.014496	0.022278	0.012512	-0.10925	-0.010529	0.005341	-0.00824	-0.037689	-0.032959	-0.056152	-0.048828	0.02182	-0.000763	0.016174	0.12421	0.18188	-0.006256	0.016327	-0.026703	0.16968	0.12238	0.10284	0.014648	-0.51392	0.003357	0.18051	-0.14572	-0.005493	-0.010071
